%TF.GenerationSoftware,KiCad,Pcbnew,9.0.0*%
%TF.CreationDate,2026-03-15T16:42:19+01:00*%
%TF.ProjectId,placa_robot,706c6163-615f-4726-9f62-6f742e6b6963,rev?*%
%TF.SameCoordinates,Original*%
%TF.FileFunction,Soldermask,Top*%
%TF.FilePolarity,Negative*%
%FSLAX46Y46*%
G04 Gerber Fmt 4.6, Leading zero omitted, Abs format (unit mm)*
G04 Created by KiCad (PCBNEW 9.0.0) date 2026-03-15 16:42:19*
%MOMM*%
%LPD*%
G01*
G04 APERTURE LIST*
G04 Aperture macros list*
%AMRoundRect*
0 Rectangle with rounded corners*
0 $1 Rounding radius*
0 $2 $3 $4 $5 $6 $7 $8 $9 X,Y pos of 4 corners*
0 Add a 4 corners polygon primitive as box body*
4,1,4,$2,$3,$4,$5,$6,$7,$8,$9,$2,$3,0*
0 Add four circle primitives for the rounded corners*
1,1,$1+$1,$2,$3*
1,1,$1+$1,$4,$5*
1,1,$1+$1,$6,$7*
1,1,$1+$1,$8,$9*
0 Add four rect primitives between the rounded corners*
20,1,$1+$1,$2,$3,$4,$5,0*
20,1,$1+$1,$4,$5,$6,$7,0*
20,1,$1+$1,$6,$7,$8,$9,0*
20,1,$1+$1,$8,$9,$2,$3,0*%
G04 Aperture macros list end*
%ADD10R,1.700000X1.700000*%
%ADD11RoundRect,0.250000X0.337500X0.475000X-0.337500X0.475000X-0.337500X-0.475000X0.337500X-0.475000X0*%
%ADD12C,1.650000*%
%ADD13C,1.950000*%
%ADD14C,2.400000*%
%ADD15RoundRect,0.250000X-0.450000X0.350000X-0.450000X-0.350000X0.450000X-0.350000X0.450000X0.350000X0*%
%ADD16C,2.000000*%
%ADD17RoundRect,0.250000X0.450000X-0.350000X0.450000X0.350000X-0.450000X0.350000X-0.450000X-0.350000X0*%
%ADD18R,1.475000X0.300000*%
%ADD19R,0.300000X1.475000*%
%ADD20RoundRect,0.250000X-0.475000X0.337500X-0.475000X-0.337500X0.475000X-0.337500X0.475000X0.337500X0*%
%ADD21RoundRect,0.150000X-0.825000X-0.150000X0.825000X-0.150000X0.825000X0.150000X-0.825000X0.150000X0*%
%ADD22R,1.560000X1.560000*%
%ADD23C,1.560000*%
%ADD24RoundRect,0.250000X0.650000X0.650000X-0.650000X0.650000X-0.650000X-0.650000X0.650000X-0.650000X0*%
%ADD25C,1.800000*%
%ADD26C,3.500000*%
%ADD27O,1.700000X1.700000*%
%ADD28C,1.400000*%
%ADD29RoundRect,0.250000X0.350000X0.450000X-0.350000X0.450000X-0.350000X-0.450000X0.350000X-0.450000X0*%
%ADD30R,1.800000X1.700000*%
%ADD31RoundRect,0.425000X-0.475000X-0.425000X0.475000X-0.425000X0.475000X0.425000X-0.475000X0.425000X0*%
%ADD32C,4.000000*%
%ADD33C,1.000000*%
G04 APERTURE END LIST*
D10*
%TO.C,J2*%
X168250000Y-118000000D03*
%TD*%
D11*
%TO.C,C6*%
X150112500Y-74375000D03*
X148037500Y-74375000D03*
%TD*%
%TO.C,C2*%
X150137500Y-71200000D03*
X148062500Y-71200000D03*
%TD*%
D12*
%TO.C,S2*%
X141575000Y-100637500D03*
X141575000Y-103137500D03*
X141575000Y-105637500D03*
X152805000Y-94407500D03*
X150305000Y-94407500D03*
X147805000Y-94407500D03*
D13*
X156055000Y-106387500D03*
X156055000Y-99887500D03*
X160555000Y-106387500D03*
X160555000Y-99887500D03*
D14*
X145305000Y-96812500D03*
X145305000Y-109462500D03*
X155305000Y-109462500D03*
X155305000Y-96812500D03*
%TD*%
D15*
%TO.C,R14*%
X165990000Y-60130000D03*
X165990000Y-62130000D03*
%TD*%
D16*
%TO.C,SW1*%
X179250000Y-93250000D03*
X179250000Y-99750000D03*
X174750000Y-93250000D03*
X174750000Y-99750000D03*
%TD*%
D17*
%TO.C,R16*%
X174200000Y-104850000D03*
X174200000Y-102850000D03*
%TD*%
D10*
%TO.C,TP1*%
X114450000Y-97250000D03*
%TD*%
%TO.C,SDA*%
X131725000Y-45875000D03*
%TD*%
D15*
%TO.C,R13*%
X175630000Y-60120000D03*
X175630000Y-62120000D03*
%TD*%
D11*
%TO.C,C5*%
X157187500Y-74475000D03*
X155112500Y-74475000D03*
%TD*%
D18*
%TO.C,IC1*%
X144238000Y-73750000D03*
X144238000Y-73250000D03*
X144238000Y-72750000D03*
X144238000Y-72250000D03*
X144238000Y-71750000D03*
X144238000Y-71250000D03*
X144238000Y-70750000D03*
X144238000Y-70250000D03*
X144238000Y-69750000D03*
X144238000Y-69250000D03*
X144238000Y-68750000D03*
X144238000Y-68250000D03*
D19*
X142750000Y-66762000D03*
X142250000Y-66762000D03*
X141750000Y-66762000D03*
X141250000Y-66762000D03*
X140750000Y-66762000D03*
X140250000Y-66762000D03*
X139750000Y-66762000D03*
X139250000Y-66762000D03*
X138750000Y-66762000D03*
X138250000Y-66762000D03*
X137750000Y-66762000D03*
X137250000Y-66762000D03*
D18*
X135762000Y-68250000D03*
X135762000Y-68750000D03*
X135762000Y-69250000D03*
X135762000Y-69750000D03*
X135762000Y-70250000D03*
X135762000Y-70750000D03*
X135762000Y-71250000D03*
X135762000Y-71750000D03*
X135762000Y-72250000D03*
X135762000Y-72750000D03*
X135762000Y-73250000D03*
X135762000Y-73750000D03*
D19*
X137250000Y-75238000D03*
X137750000Y-75238000D03*
X138250000Y-75238000D03*
X138750000Y-75238000D03*
X139250000Y-75238000D03*
X139750000Y-75238000D03*
X140250000Y-75238000D03*
X140750000Y-75238000D03*
X141250000Y-75238000D03*
X141750000Y-75238000D03*
X142250000Y-75238000D03*
X142750000Y-75238000D03*
%TD*%
D10*
%TO.C,TP16*%
X143500000Y-91000000D03*
%TD*%
D15*
%TO.C,R15*%
X117500000Y-103000000D03*
X117500000Y-105000000D03*
%TD*%
D20*
%TO.C,C7*%
X141500000Y-110175000D03*
X141500000Y-112250000D03*
%TD*%
D17*
%TO.C,R5*%
X158500000Y-84500000D03*
X158500000Y-82500000D03*
%TD*%
D21*
%TO.C,U1*%
X146525000Y-80690000D03*
X146525000Y-81960000D03*
X146525000Y-83230000D03*
X146525000Y-84500000D03*
X146525000Y-85770000D03*
X146525000Y-87040000D03*
X146525000Y-88310000D03*
X151475000Y-88310000D03*
X151475000Y-87040000D03*
X151475000Y-85770000D03*
X151475000Y-84500000D03*
X151475000Y-83230000D03*
X151475000Y-81960000D03*
X151475000Y-80690000D03*
%TD*%
D17*
%TO.C,R6*%
X158500000Y-80500000D03*
X158500000Y-78500000D03*
%TD*%
D10*
%TO.C,SDL*%
X135675000Y-45875000D03*
%TD*%
%TO.C,TP13*%
X118450000Y-97250000D03*
%TD*%
D22*
%TO.C,RV1*%
X126890000Y-85760000D03*
D23*
X129390000Y-90760000D03*
X131890000Y-85760000D03*
%TD*%
D24*
%TO.C,J4*%
X152700000Y-54960000D03*
D25*
X152700000Y-57500000D03*
X150160000Y-54960000D03*
X150160000Y-57500000D03*
X147620000Y-54960000D03*
X147620000Y-57500000D03*
X145080000Y-54960000D03*
X145080000Y-57500000D03*
X142540000Y-54960000D03*
X142540000Y-57500000D03*
X140000000Y-54960000D03*
X140000000Y-57500000D03*
X137460000Y-54960000D03*
X137460000Y-57500000D03*
D26*
X145080000Y-117500000D03*
X118080000Y-87500000D03*
X172080000Y-87500000D03*
X110080000Y-45500000D03*
X180080000Y-45500000D03*
%TD*%
D10*
%TO.C,J1*%
X177500000Y-75937500D03*
D27*
X177500000Y-78477500D03*
X177500000Y-81017500D03*
%TD*%
D22*
%TO.C,RV2*%
X135000000Y-85760000D03*
D23*
X137500000Y-90760000D03*
X140000000Y-85760000D03*
%TD*%
D10*
%TO.C,TP10*%
X110450000Y-97250000D03*
%TD*%
D11*
%TO.C,C4*%
X150135000Y-65580000D03*
X148060000Y-65580000D03*
%TD*%
D10*
%TO.C,J3*%
X110460000Y-104380000D03*
D27*
X113000000Y-104380000D03*
X110460000Y-106920000D03*
X113000000Y-106920000D03*
X110460000Y-109460000D03*
X113000000Y-109460000D03*
X110460000Y-112000000D03*
X113000000Y-112000000D03*
%TD*%
D28*
%TO.C,JP1*%
X179000000Y-66250000D03*
X179000000Y-63710000D03*
%TD*%
D29*
%TO.C,R1*%
X166200000Y-67200000D03*
X164200000Y-67200000D03*
%TD*%
D10*
%TO.C,R9*%
X114500000Y-118000000D03*
D27*
X111960000Y-118000000D03*
%TD*%
D30*
%TO.C,LCD1*%
X169475000Y-59590000D03*
D31*
X172015000Y-59590000D03*
X169475000Y-62130000D03*
X172015000Y-62130000D03*
X169475000Y-64670000D03*
X172015000Y-64670000D03*
X169475000Y-67210000D03*
X172015000Y-67210000D03*
D32*
X171500000Y-74800000D03*
X110500000Y-74800000D03*
X110500000Y-51800000D03*
X171500000Y-51800000D03*
%TD*%
D10*
%TO.C,R10*%
X179000000Y-117250000D03*
D27*
X176460000Y-117250000D03*
%TD*%
D17*
%TO.C,R4*%
X158500000Y-89500000D03*
X158500000Y-87500000D03*
%TD*%
D33*
%TO.C,Y1*%
X148070000Y-69340000D03*
X148070000Y-67440000D03*
%TD*%
M02*
