M48
; DRILL file {KiCad 9.0.0} date 2026-03-15T16:42:54+0100
; FORMAT={-:-/ absolute / metric / decimal}
; #@! TF.CreationDate,2026-03-15T16:42:54+01:00
; #@! TF.GenerationSoftware,Kicad,Pcbnew,9.0.0
; #@! TF.FileFunction,Plated,1,2,PTH
FMAT,2
METRIC
; #@! TA.AperFunction,Plated,PTH,ViaDrill
T1C0.600
; #@! TA.AperFunction,Plated,PTH,ComponentDrill
T2C0.600
; #@! TA.AperFunction,Plated,PTH,ComponentDrill
T3C0.800
; #@! TA.AperFunction,Plated,PTH,ComponentDrill
T4C1.000
; #@! TA.AperFunction,Plated,PTH,ComponentDrill
T5C1.100
; #@! TA.AperFunction,Plated,PTH,ComponentDrill
T6C1.300
; #@! TA.AperFunction,Plated,PTH,ComponentDrill
T7C1.600
; #@! TA.AperFunction,Plated,PTH,ComponentDrill
T8C2.500
; #@! TA.AperFunction,Plated,PTH,ComponentDrill
T9C3.000
%
G90
G05
T1
X125.0Y-99.0
X135.42Y-58.94
X136.0Y-78.5
X139.2Y-100.4
X139.5Y-81.5
X142.75Y-64.975
X143.6Y-112.2
X144.5Y-84.5
X146.758Y-70.208
X148.5Y-82.0
X149.4Y-104.4
X150.0Y-85.27
X150.73Y-62.33
X151.3Y-71.2
X151.3Y-74.375
X151.6Y-65.6
X153.96Y-81.96
X154.0Y-84.5
X154.0Y-86.0
X154.86Y-64.67
X156.625Y-82.0
X158.0Y-86.0
X158.275Y-74.475
X160.25Y-78.5
X162.6Y-67.2
X175.7Y-58.29
T2
X148.07Y-67.44
X148.07Y-69.34
T3
X179.0Y-63.71
X179.0Y-66.25
T4
X110.45Y-97.25
X110.46Y-104.38
X110.46Y-106.92
X110.46Y-109.46
X110.46Y-112.0
X111.96Y-118.0
X113.0Y-104.38
X113.0Y-106.92
X113.0Y-109.46
X113.0Y-112.0
X114.45Y-97.25
X114.5Y-118.0
X118.45Y-97.25
X126.89Y-85.76
X129.39Y-90.76
X131.725Y-45.875
X131.89Y-85.76
X135.0Y-85.76
X135.675Y-45.875
X137.46Y-54.96
X137.46Y-57.5
X137.5Y-90.76
X140.0Y-54.96
X140.0Y-57.5
X140.0Y-85.76
X142.54Y-54.96
X142.54Y-57.5
X143.5Y-91.0
X145.08Y-54.96
X145.08Y-57.5
X147.62Y-54.96
X147.62Y-57.5
X150.16Y-54.96
X150.16Y-57.5
X152.7Y-54.96
X152.7Y-57.5
X168.25Y-118.0
X169.475Y-59.59
X169.475Y-62.13
X169.475Y-64.67
X169.475Y-67.21
X172.015Y-59.59
X172.015Y-62.13
X172.015Y-64.67
X172.015Y-67.21
X176.46Y-117.25
X177.5Y-75.938
X177.5Y-78.477
X177.5Y-81.017
X179.0Y-117.25
T5
X141.575Y-100.637
X141.575Y-103.137
X141.575Y-105.637
X147.805Y-94.407
X150.305Y-94.407
X152.805Y-94.407
X174.75Y-93.25
X174.75Y-99.75
X179.25Y-93.25
X179.25Y-99.75
T6
X156.055Y-99.887
X156.055Y-106.387
X160.555Y-99.887
X160.555Y-106.387
T7
X145.305Y-96.812
X145.305Y-109.462
X155.305Y-96.812
X155.305Y-109.462
T8
X110.5Y-51.8
X110.5Y-74.8
X171.5Y-51.8
X171.5Y-74.8
T9
X110.08Y-45.5
X118.08Y-87.5
X145.08Y-117.5
X172.08Y-87.5
X180.08Y-45.5
M30
