%TF.GenerationSoftware,KiCad,Pcbnew,9.0.0*%
%TF.CreationDate,2026-03-15T16:42:19+01:00*%
%TF.ProjectId,placa_robot,706c6163-615f-4726-9f62-6f742e6b6963,rev?*%
%TF.SameCoordinates,Original*%
%TF.FileFunction,Paste,Top*%
%TF.FilePolarity,Positive*%
%FSLAX46Y46*%
G04 Gerber Fmt 4.6, Leading zero omitted, Abs format (unit mm)*
G04 Created by KiCad (PCBNEW 9.0.0) date 2026-03-15 16:42:19*
%MOMM*%
%LPD*%
G01*
G04 APERTURE LIST*
G04 Aperture macros list*
%AMRoundRect*
0 Rectangle with rounded corners*
0 $1 Rounding radius*
0 $2 $3 $4 $5 $6 $7 $8 $9 X,Y pos of 4 corners*
0 Add a 4 corners polygon primitive as box body*
4,1,4,$2,$3,$4,$5,$6,$7,$8,$9,$2,$3,0*
0 Add four circle primitives for the rounded corners*
1,1,$1+$1,$2,$3*
1,1,$1+$1,$4,$5*
1,1,$1+$1,$6,$7*
1,1,$1+$1,$8,$9*
0 Add four rect primitives between the rounded corners*
20,1,$1+$1,$2,$3,$4,$5,0*
20,1,$1+$1,$4,$5,$6,$7,0*
20,1,$1+$1,$6,$7,$8,$9,0*
20,1,$1+$1,$8,$9,$2,$3,0*%
G04 Aperture macros list end*
%ADD10RoundRect,0.250000X0.337500X0.475000X-0.337500X0.475000X-0.337500X-0.475000X0.337500X-0.475000X0*%
%ADD11RoundRect,0.250000X-0.450000X0.350000X-0.450000X-0.350000X0.450000X-0.350000X0.450000X0.350000X0*%
%ADD12RoundRect,0.250000X0.450000X-0.350000X0.450000X0.350000X-0.450000X0.350000X-0.450000X-0.350000X0*%
%ADD13R,1.475000X0.300000*%
%ADD14R,0.300000X1.475000*%
%ADD15RoundRect,0.250000X-0.475000X0.337500X-0.475000X-0.337500X0.475000X-0.337500X0.475000X0.337500X0*%
%ADD16RoundRect,0.150000X-0.825000X-0.150000X0.825000X-0.150000X0.825000X0.150000X-0.825000X0.150000X0*%
%ADD17RoundRect,0.250000X0.350000X0.450000X-0.350000X0.450000X-0.350000X-0.450000X0.350000X-0.450000X0*%
G04 APERTURE END LIST*
D10*
%TO.C,C6*%
X150112500Y-74375000D03*
X148037500Y-74375000D03*
%TD*%
%TO.C,C2*%
X150137500Y-71200000D03*
X148062500Y-71200000D03*
%TD*%
D11*
%TO.C,R14*%
X165990000Y-60130000D03*
X165990000Y-62130000D03*
%TD*%
D12*
%TO.C,R16*%
X174200000Y-104850000D03*
X174200000Y-102850000D03*
%TD*%
D11*
%TO.C,R13*%
X175630000Y-60120000D03*
X175630000Y-62120000D03*
%TD*%
D10*
%TO.C,C5*%
X157187500Y-74475000D03*
X155112500Y-74475000D03*
%TD*%
D13*
%TO.C,IC1*%
X144238000Y-73750000D03*
X144238000Y-73250000D03*
X144238000Y-72750000D03*
X144238000Y-72250000D03*
X144238000Y-71750000D03*
X144238000Y-71250000D03*
X144238000Y-70750000D03*
X144238000Y-70250000D03*
X144238000Y-69750000D03*
X144238000Y-69250000D03*
X144238000Y-68750000D03*
X144238000Y-68250000D03*
D14*
X142750000Y-66762000D03*
X142250000Y-66762000D03*
X141750000Y-66762000D03*
X141250000Y-66762000D03*
X140750000Y-66762000D03*
X140250000Y-66762000D03*
X139750000Y-66762000D03*
X139250000Y-66762000D03*
X138750000Y-66762000D03*
X138250000Y-66762000D03*
X137750000Y-66762000D03*
X137250000Y-66762000D03*
D13*
X135762000Y-68250000D03*
X135762000Y-68750000D03*
X135762000Y-69250000D03*
X135762000Y-69750000D03*
X135762000Y-70250000D03*
X135762000Y-70750000D03*
X135762000Y-71250000D03*
X135762000Y-71750000D03*
X135762000Y-72250000D03*
X135762000Y-72750000D03*
X135762000Y-73250000D03*
X135762000Y-73750000D03*
D14*
X137250000Y-75238000D03*
X137750000Y-75238000D03*
X138250000Y-75238000D03*
X138750000Y-75238000D03*
X139250000Y-75238000D03*
X139750000Y-75238000D03*
X140250000Y-75238000D03*
X140750000Y-75238000D03*
X141250000Y-75238000D03*
X141750000Y-75238000D03*
X142250000Y-75238000D03*
X142750000Y-75238000D03*
%TD*%
D11*
%TO.C,R15*%
X117500000Y-103000000D03*
X117500000Y-105000000D03*
%TD*%
D15*
%TO.C,C7*%
X141500000Y-110175000D03*
X141500000Y-112250000D03*
%TD*%
D12*
%TO.C,R5*%
X158500000Y-84500000D03*
X158500000Y-82500000D03*
%TD*%
D16*
%TO.C,U1*%
X146525000Y-80690000D03*
X146525000Y-81960000D03*
X146525000Y-83230000D03*
X146525000Y-84500000D03*
X146525000Y-85770000D03*
X146525000Y-87040000D03*
X146525000Y-88310000D03*
X151475000Y-88310000D03*
X151475000Y-87040000D03*
X151475000Y-85770000D03*
X151475000Y-84500000D03*
X151475000Y-83230000D03*
X151475000Y-81960000D03*
X151475000Y-80690000D03*
%TD*%
D12*
%TO.C,R6*%
X158500000Y-80500000D03*
X158500000Y-78500000D03*
%TD*%
D10*
%TO.C,C4*%
X150135000Y-65580000D03*
X148060000Y-65580000D03*
%TD*%
D17*
%TO.C,R1*%
X166200000Y-67200000D03*
X164200000Y-67200000D03*
%TD*%
D12*
%TO.C,R4*%
X158500000Y-89500000D03*
X158500000Y-87500000D03*
%TD*%
M02*
